<svg
  viewBox="0 0 688 688"
  width="688"
  height="688"
  x="0"
  y="0"
  xmlns="http://www.w3.org/2000/svg"
>
  <defs>
    <pattern
      id="pattern"
      x="0"
      y="0"
      width="8"
      height="8"
      patternUnits="userSpaceOnUse"
    >
      <polygon points="0,4 0,8 8,0 4,0" fill="#ffffff"></polygon>
      <polygon points="4,8 8,8 8,4" fill="#ffffff"></polygon>
    </pattern>
    <mask id="grating" x="0" y="0" width="1" height="1">
      <rect x="0" y="0" width="100%" height="100%" fill="url(#pattern)"></rect>
    </mask>
  </defs>
  <g id="horizStripes">
    <rect fill="#000000" height="688" width="100%" x="0" y="32"></rect>
    <rect fill="#AF0000" height="32" width="100%" x="0" y="0"></rect>
    <rect fill="#ffffff" height="32" width="100%" x="0" y="128"></rect>
    <rect fill="#ffffff" height="64" width="100%" x="0" y="192"></rect>
    <rect fill="#ffffff" height="32" width="100%" x="0" y="264"></rect>
    <rect fill="#ffffff" height="64" width="100%" x="0" y="304"></rect>
    <rect fill="#ffffff" height="32" width="100%" x="0" y="400"></rect>
    <rect fill="#AF0000" height="32" width="100%" x="0" y="560"></rect>
  </g>
  <g id="vertStripes" mask="url(#grating)">
    <rect fill="#AF0000" height="100%" width="32" x="0" y="0"></rect>
    <rect fill="#003818" height="100%" width="32" x="32" y="0"></rect>
    <rect fill="#000000" height="100%" width="32" x="64" y="0"></rect>
    <rect fill="#0f172a" height="100%" width="64" x="96" y="0"></rect>
    <rect fill="#000000" height="100%" width="32" x="160" y="0"></rect>
    <rect fill="#003818" height="100%" width="32" x="192" y="0"></rect>
    <rect fill="#AF0000" height="100%" width="32" x="224" y="0"></rect>
    <rect fill="#003818" height="100%" width="32" x="256" y="0"></rect>
    <rect fill="#000000" height="100%" width="32" x="288" y="0"></rect>
    <rect fill="#ffffff" height="100%" width="32" x="320" y="0"></rect>
    <rect fill="#000000" height="100%" width="32" x="352" y="0"></rect>
    <rect fill="#ffffff" height="100%" width="64" x="384" y="0"></rect>
    <rect fill="#000000" height="100%" width="8" x="448" y="0"></rect>
    <rect fill="#ffffff" height="100%" width="32" x="456" y="0"></rect>
    <rect fill="#000000" height="100%" width="8" x="488" y="0"></rect>
    <rect fill="#ffffff" height="100%" width="64" x="496" y="0"></rect>
    <rect fill="#000000" height="100%" width="32" x="560" y="0"></rect>
    <rect fill="#ffffff" height="100%" width="32" x="592" y="0"></rect>
    <rect fill="#000000" height="100%" width="32" x="624" y="0"></rect>
    <rect fill="#003818" height="100%" width="32" x="656" y="0"></rect>
  </g>
</svg>
